<svg id="visual" viewBox="0 0 900 900" width="full" height="full" xmlns="http://www.w3.org/2000/svg" xmlns:xlink="http://www.w3.org/1999/xlink" version="1.1"><rect x="0" y="0" width="900" height="900" fill="#f6eded"></rect><defs><linearGradient id="grad1_0" x1="0%" y1="100%" x2="100%" y2="0%"><stop offset="30%" stop-color="#3279e5" stop-opacity="1"></stop><stop offset="70%" stop-color="#3279e5" stop-opacity="1"></stop></linearGradient></defs><defs><linearGradient id="grad1_1" x1="0%" y1="100%" x2="100%" y2="0%"><stop offset="30%" stop-color="#3279e5" stop-opacity="1"></stop><stop offset="70%" stop-color="#8780e0" stop-opacity="1"></stop></linearGradient></defs><defs><linearGradient id="grad1_2" x1="0%" y1="100%" x2="100%" y2="0%"><stop offset="30%" stop-color="#b38ad9" stop-opacity="1"></stop><stop offset="70%" stop-color="#8780e0" stop-opacity="1"></stop></linearGradient></defs><defs><linearGradient id="grad1_3" x1="0%" y1="100%" x2="100%" y2="0%"><stop offset="30%" stop-color="#b38ad9" stop-opacity="1"></stop><stop offset="70%" stop-color="#d199d2" stop-opacity="1"></stop></linearGradient></defs><defs><linearGradient id="grad1_4" x1="0%" y1="100%" x2="100%" y2="0%"><stop offset="30%" stop-color="#e5abd0" stop-opacity="1"></stop><stop offset="70%" stop-color="#d199d2" stop-opacity="1"></stop></linearGradient></defs><defs><linearGradient id="grad1_5" x1="0%" y1="100%" x2="100%" y2="0%"><stop offset="30%" stop-color="#e5abd0" stop-opacity="1"></stop><stop offset="70%" stop-color="#f0c0d2" stop-opacity="1"></stop></linearGradient></defs><defs><linearGradient id="grad1_6" x1="0%" y1="100%" x2="100%" y2="0%"><stop offset="30%" stop-color="#f5d6dc" stop-opacity="1"></stop><stop offset="70%" stop-color="#f0c0d2" stop-opacity="1"></stop></linearGradient></defs><defs><linearGradient id="grad1_7" x1="0%" y1="100%" x2="100%" y2="0%"><stop offset="30%" stop-color="#f5d6dc" stop-opacity="1"></stop><stop offset="70%" stop-color="#f6eded" stop-opacity="1"></stop></linearGradient></defs><defs><linearGradient id="grad2_0" x1="0%" y1="100%" x2="100%" y2="0%"><stop offset="30%" stop-color="#3279e5" stop-opacity="1"></stop><stop offset="70%" stop-color="#3279e5" stop-opacity="1"></stop></linearGradient></defs><defs><linearGradient id="grad2_1" x1="0%" y1="100%" x2="100%" y2="0%"><stop offset="30%" stop-color="#8780e0" stop-opacity="1"></stop><stop offset="70%" stop-color="#3279e5" stop-opacity="1"></stop></linearGradient></defs><defs><linearGradient id="grad2_2" x1="0%" y1="100%" x2="100%" y2="0%"><stop offset="30%" stop-color="#8780e0" stop-opacity="1"></stop><stop offset="70%" stop-color="#b38ad9" stop-opacity="1"></stop></linearGradient></defs><defs><linearGradient id="grad2_3" x1="0%" y1="100%" x2="100%" y2="0%"><stop offset="30%" stop-color="#d199d2" stop-opacity="1"></stop><stop offset="70%" stop-color="#b38ad9" stop-opacity="1"></stop></linearGradient></defs><defs><linearGradient id="grad2_4" x1="0%" y1="100%" x2="100%" y2="0%"><stop offset="30%" stop-color="#d199d2" stop-opacity="1"></stop><stop offset="70%" stop-color="#e5abd0" stop-opacity="1"></stop></linearGradient></defs><defs><linearGradient id="grad2_5" x1="0%" y1="100%" x2="100%" y2="0%"><stop offset="30%" stop-color="#f0c0d2" stop-opacity="1"></stop><stop offset="70%" stop-color="#e5abd0" stop-opacity="1"></stop></linearGradient></defs><defs><linearGradient id="grad2_6" x1="0%" y1="100%" x2="100%" y2="0%"><stop offset="30%" stop-color="#f0c0d2" stop-opacity="1"></stop><stop offset="70%" stop-color="#f5d6dc" stop-opacity="1"></stop></linearGradient></defs><defs><linearGradient id="grad2_7" x1="0%" y1="100%" x2="100%" y2="0%"><stop offset="30%" stop-color="#f6eded" stop-opacity="1"></stop><stop offset="70%" stop-color="#f5d6dc" stop-opacity="1"></stop></linearGradient></defs><g transform="translate(900, 900)"><path d="M-540.9 0C-517.2 -57.1 -493.5 -114.2 -447.9 -145.5C-402.4 -176.9 -335.2 -182.5 -314.7 -228.6C-294.3 -274.8 -320.6 -361.4 -303.3 -417.5C-286 -473.5 -225 -499 -167.2 -514.5C-109.3 -529.9 -54.7 -535.4 0 -540.9L0 0Z" fill="#f6e2e3"></path><path d="M-473.3 0C-452.5 -50 -431.8 -99.9 -392 -127.4C-352.1 -154.8 -293.3 -159.7 -275.4 -200.1C-257.5 -240.4 -280.5 -316.2 -265.4 -365.3C-250.2 -414.3 -196.9 -436.6 -146.3 -450.2C-95.7 -463.7 -47.8 -468.5 0 -473.3L0 0Z" fill="#f3cbd6"></path><path d="M-405.7 0C-387.9 -42.8 -370.1 -85.6 -336 -109.2C-301.8 -132.7 -251.4 -136.9 -236 -171.5C-220.7 -206.1 -240.5 -271.1 -227.5 -313.1C-214.5 -355.1 -168.7 -374.2 -125.4 -385.8C-82 -397.5 -41 -401.6 0 -405.7L0 0Z" fill="#ebb5d0"></path><path d="M-338.1 0C-323.2 -35.7 -308.4 -71.4 -280 -91C-251.5 -110.6 -209.5 -114.1 -196.7 -142.9C-183.9 -171.7 -200.4 -225.9 -189.6 -260.9C-178.7 -295.9 -140.6 -311.9 -104.5 -321.5C-68.3 -331.2 -34.2 -334.7 0 -338.1L0 0Z" fill="#dca1d1"></path><path d="M-270.5 0C-258.6 -28.5 -246.7 -57.1 -224 -72.8C-201.2 -88.5 -167.6 -91.3 -157.4 -114.3C-147.1 -137.4 -160.3 -180.7 -151.6 -208.7C-143 -236.8 -112.5 -249.5 -83.6 -257.2C-54.7 -265 -27.3 -267.7 0 -270.5L0 0Z" fill="#c491d5"></path><path d="M-202.9 0C-193.9 -21.4 -185 -42.8 -168 -54.6C-150.9 -66.3 -125.7 -68.4 -118 -85.7C-110.3 -103 -120.2 -135.5 -113.7 -156.5C-107.2 -177.6 -84.4 -187.1 -62.7 -192.9C-41 -198.7 -20.5 -200.8 0 -202.9L0 0Z" fill="#a084dc"></path><path d="M-135.2 0C-129.3 -14.3 -123.4 -28.5 -112 -36.4C-100.6 -44.2 -83.8 -45.6 -78.7 -57.2C-73.6 -68.7 -80.2 -90.4 -75.8 -104.4C-71.5 -118.4 -56.2 -124.7 -41.8 -128.6C-27.3 -132.5 -13.7 -133.9 0 -135.2L0 0Z" fill="#677ce3"></path><path d="M-67.6 0C-64.6 -7.1 -61.7 -14.3 -56 -18.2C-50.3 -22.1 -41.9 -22.8 -39.3 -28.6C-36.8 -34.3 -40.1 -45.2 -37.9 -52.2C-35.7 -59.2 -28.1 -62.4 -20.9 -64.3C-13.7 -66.2 -6.8 -66.9 0 -67.6L0 0Z" fill="#3279e5"></path></g><g transform="translate(0, 0)"><path d="M540.9 0C490.6 44.2 440.3 88.3 415.6 135C390.9 181.8 391.9 231.1 373 271C354 310.8 315 341.2 279.8 385.1C244.6 428.9 213.2 486.2 167.2 514.5C121.2 542.7 60.6 541.8 0 540.9L0 0Z" fill="#f6e2e3"></path><path d="M473.3 0C429.3 38.6 385.2 77.3 363.7 118.2C342.1 159.1 343 202.2 326.3 237.1C309.7 272 275.6 298.6 244.8 337C214 375.3 186.5 425.5 146.3 450.2C106 474.8 53 474.1 0 473.3L0 0Z" fill="#f3cbd6"></path><path d="M405.7 0C368 33.1 330.2 66.2 311.7 101.3C293.2 136.3 294 173.3 279.7 203.2C265.5 233.1 236.2 255.9 209.8 288.8C183.4 321.7 159.9 364.7 125.4 385.8C90.9 407 45.4 406.4 0 405.7L0 0Z" fill="#ebb5d0"></path><path d="M338.1 0C306.6 27.6 275.2 55.2 259.8 84.4C244.3 113.6 245 144.4 233.1 169.4C221.2 194.3 196.9 213.3 174.9 240.7C152.9 268.1 133.2 303.9 104.5 321.5C75.7 339.2 37.9 338.6 0 338.1L0 0Z" fill="#dca1d1"></path><path d="M270.5 0C245.3 22.1 220.1 44.2 207.8 67.5C195.5 90.9 196 115.6 186.5 135.5C177 155.4 157.5 170.6 139.9 192.5C122.3 214.5 106.6 243.1 83.6 257.2C60.6 271.3 30.3 270.9 0 270.5L0 0Z" fill="#c491d5"></path><path d="M202.9 0C184 16.6 165.1 33.1 155.9 50.6C146.6 68.2 147 86.7 139.9 101.6C132.7 116.6 118.1 128 104.9 144.4C91.7 160.9 79.9 182.3 62.7 192.9C45.4 203.5 22.7 203.2 0 202.9L0 0Z" fill="#a084dc"></path><path d="M135.2 0C122.7 11 110.1 22.1 103.9 33.8C97.7 45.4 98 57.8 93.2 67.7C88.5 77.7 78.7 85.3 69.9 96.3C61.1 107.2 53.3 121.6 41.8 128.6C30.3 135.7 15.1 135.5 0 135.2L0 0Z" fill="#677ce3"></path><path d="M67.6 0C61.3 5.5 55 11 52 16.9C48.9 22.7 49 28.9 46.6 33.9C44.2 38.9 39.4 42.7 35 48.1C30.6 53.6 26.6 60.8 20.9 64.3C15.1 67.8 7.6 67.7 0 67.6L0 0Z" fill="#3279e5"></path></g></svg>