<svg id="visual" viewBox="0 0 900 900" width="full" height="full" xmlns="http://www.w3.org/2000/svg" xmlns:xlink="http://www.w3.org/1999/xlink" version="1.1"><rect x="0" y="0" width="900" height="900" fill="#f6eded"></rect><defs><linearGradient id="grad1_0" x1="0%" y1="0%" x2="100%" y2="100%"><stop offset="30%" stop-color="#3279e5" stop-opacity="1"></stop><stop offset="70%" stop-color="#3279e5" stop-opacity="1"></stop></linearGradient></defs><defs><linearGradient id="grad1_1" x1="0%" y1="0%" x2="100%" y2="100%"><stop offset="30%" stop-color="#3279e5" stop-opacity="1"></stop><stop offset="70%" stop-color="#8780e0" stop-opacity="1"></stop></linearGradient></defs><defs><linearGradient id="grad1_2" x1="0%" y1="0%" x2="100%" y2="100%"><stop offset="30%" stop-color="#b38ad9" stop-opacity="1"></stop><stop offset="70%" stop-color="#8780e0" stop-opacity="1"></stop></linearGradient></defs><defs><linearGradient id="grad1_3" x1="0%" y1="0%" x2="100%" y2="100%"><stop offset="30%" stop-color="#b38ad9" stop-opacity="1"></stop><stop offset="70%" stop-color="#d199d2" stop-opacity="1"></stop></linearGradient></defs><defs><linearGradient id="grad1_4" x1="0%" y1="0%" x2="100%" y2="100%"><stop offset="30%" stop-color="#e5abd0" stop-opacity="1"></stop><stop offset="70%" stop-color="#d199d2" stop-opacity="1"></stop></linearGradient></defs><defs><linearGradient id="grad1_5" x1="0%" y1="0%" x2="100%" y2="100%"><stop offset="30%" stop-color="#e5abd0" stop-opacity="1"></stop><stop offset="70%" stop-color="#f0c0d2" stop-opacity="1"></stop></linearGradient></defs><defs><linearGradient id="grad1_6" x1="0%" y1="0%" x2="100%" y2="100%"><stop offset="30%" stop-color="#f5d6dc" stop-opacity="1"></stop><stop offset="70%" stop-color="#f0c0d2" stop-opacity="1"></stop></linearGradient></defs><defs><linearGradient id="grad1_7" x1="0%" y1="0%" x2="100%" y2="100%"><stop offset="30%" stop-color="#f5d6dc" stop-opacity="1"></stop><stop offset="70%" stop-color="#f6eded" stop-opacity="1"></stop></linearGradient></defs><defs><linearGradient id="grad2_0" x1="0%" y1="0%" x2="100%" y2="100%"><stop offset="30%" stop-color="#3279e5" stop-opacity="1"></stop><stop offset="70%" stop-color="#3279e5" stop-opacity="1"></stop></linearGradient></defs><defs><linearGradient id="grad2_1" x1="0%" y1="0%" x2="100%" y2="100%"><stop offset="30%" stop-color="#8780e0" stop-opacity="1"></stop><stop offset="70%" stop-color="#3279e5" stop-opacity="1"></stop></linearGradient></defs><defs><linearGradient id="grad2_2" x1="0%" y1="0%" x2="100%" y2="100%"><stop offset="30%" stop-color="#8780e0" stop-opacity="1"></stop><stop offset="70%" stop-color="#b38ad9" stop-opacity="1"></stop></linearGradient></defs><defs><linearGradient id="grad2_3" x1="0%" y1="0%" x2="100%" y2="100%"><stop offset="30%" stop-color="#d199d2" stop-opacity="1"></stop><stop offset="70%" stop-color="#b38ad9" stop-opacity="1"></stop></linearGradient></defs><defs><linearGradient id="grad2_4" x1="0%" y1="0%" x2="100%" y2="100%"><stop offset="30%" stop-color="#d199d2" stop-opacity="1"></stop><stop offset="70%" stop-color="#e5abd0" stop-opacity="1"></stop></linearGradient></defs><defs><linearGradient id="grad2_5" x1="0%" y1="0%" x2="100%" y2="100%"><stop offset="30%" stop-color="#f0c0d2" stop-opacity="1"></stop><stop offset="70%" stop-color="#e5abd0" stop-opacity="1"></stop></linearGradient></defs><defs><linearGradient id="grad2_6" x1="0%" y1="0%" x2="100%" y2="100%"><stop offset="30%" stop-color="#f0c0d2" stop-opacity="1"></stop><stop offset="70%" stop-color="#f5d6dc" stop-opacity="1"></stop></linearGradient></defs><defs><linearGradient id="grad2_7" x1="0%" y1="0%" x2="100%" y2="100%"><stop offset="30%" stop-color="#f6eded" stop-opacity="1"></stop><stop offset="70%" stop-color="#f5d6dc" stop-opacity="1"></stop></linearGradient></defs><g transform="translate(900, 0)"><path d="M0 540.9C-57.1 517.2 -114.2 493.5 -145.5 447.9C-176.9 402.4 -182.5 335.2 -228.6 314.7C-274.8 294.3 -361.4 320.6 -417.5 303.3C-473.5 286 -499 225 -514.5 167.2C-529.9 109.3 -535.4 54.7 -540.9 0L0 0Z" fill="#f6e2e3"></path><path d="M0 473.3C-50 452.5 -99.9 431.8 -127.4 392C-154.8 352.1 -159.7 293.3 -200.1 275.4C-240.4 257.5 -316.2 280.5 -365.3 265.4C-414.3 250.2 -436.6 196.9 -450.2 146.3C-463.7 95.7 -468.5 47.8 -473.3 0L0 0Z" fill="#f3cbd6"></path><path d="M0 405.7C-42.8 387.9 -85.6 370.1 -109.2 336C-132.7 301.8 -136.9 251.4 -171.5 236C-206.1 220.7 -271.1 240.5 -313.1 227.5C-355.1 214.5 -374.2 168.7 -385.8 125.4C-397.5 82 -401.6 41 -405.7 0L0 0Z" fill="#ebb5d0"></path><path d="M0 338.1C-35.7 323.2 -71.4 308.4 -91 280C-110.6 251.5 -114.1 209.5 -142.9 196.7C-171.7 183.9 -225.9 200.4 -260.9 189.6C-295.9 178.7 -311.9 140.6 -321.5 104.5C-331.2 68.3 -334.7 34.2 -338.1 0L0 0Z" fill="#dca1d1"></path><path d="M0 270.5C-28.5 258.6 -57.1 246.7 -72.8 224C-88.5 201.2 -91.3 167.6 -114.3 157.4C-137.4 147.1 -180.7 160.3 -208.7 151.6C-236.8 143 -249.5 112.5 -257.2 83.6C-265 54.7 -267.7 27.3 -270.5 0L0 0Z" fill="#c491d5"></path><path d="M0 202.9C-21.4 193.9 -42.8 185 -54.6 168C-66.3 150.9 -68.4 125.7 -85.7 118C-103 110.3 -135.5 120.2 -156.5 113.7C-177.6 107.2 -187.1 84.4 -192.9 62.7C-198.7 41 -200.8 20.5 -202.9 0L0 0Z" fill="#a084dc"></path><path d="M0 135.2C-14.3 129.3 -28.5 123.4 -36.4 112C-44.2 100.6 -45.6 83.8 -57.2 78.7C-68.7 73.6 -90.4 80.2 -104.4 75.8C-118.4 71.5 -124.7 56.2 -128.6 41.8C-132.5 27.3 -133.9 13.7 -135.2 0L0 0Z" fill="#677ce3"></path><path d="M0 67.6C-7.1 64.6 -14.3 61.7 -18.2 56C-22.1 50.3 -22.8 41.9 -28.6 39.3C-34.3 36.8 -45.2 40.1 -52.2 37.9C-59.2 35.7 -62.4 28.1 -64.3 20.9C-66.2 13.7 -66.9 6.8 -67.6 0L0 0Z" fill="#3279e5"></path></g><g transform="translate(0, 900)"><path d="M0 -540.9C44.2 -490.6 88.3 -440.3 135 -415.6C181.8 -390.9 231.1 -391.9 271 -373C310.8 -354 341.2 -315 385.1 -279.8C428.9 -244.6 486.2 -213.2 514.5 -167.2C542.7 -121.2 541.8 -60.6 540.9 0L0 0Z" fill="#f6e2e3"></path><path d="M0 -473.3C38.6 -429.3 77.3 -385.2 118.2 -363.7C159.1 -342.1 202.2 -343 237.1 -326.3C272 -309.7 298.6 -275.6 337 -244.8C375.3 -214 425.5 -186.5 450.2 -146.3C474.8 -106 474.1 -53 473.3 0L0 0Z" fill="#f3cbd6"></path><path d="M0 -405.7C33.1 -368 66.2 -330.2 101.3 -311.7C136.3 -293.2 173.3 -294 203.2 -279.7C233.1 -265.5 255.9 -236.2 288.8 -209.8C321.7 -183.4 364.7 -159.9 385.8 -125.4C407 -90.9 406.4 -45.4 405.7 0L0 0Z" fill="#ebb5d0"></path><path d="M0 -338.1C27.6 -306.6 55.2 -275.2 84.4 -259.8C113.6 -244.3 144.4 -245 169.4 -233.1C194.3 -221.2 213.3 -196.9 240.7 -174.9C268.1 -152.9 303.9 -133.2 321.5 -104.5C339.2 -75.7 338.6 -37.9 338.1 0L0 0Z" fill="#dca1d1"></path><path d="M0 -270.5C22.1 -245.3 44.2 -220.1 67.5 -207.8C90.9 -195.5 115.6 -196 135.5 -186.5C155.4 -177 170.6 -157.5 192.5 -139.9C214.5 -122.3 243.1 -106.6 257.2 -83.6C271.3 -60.6 270.9 -30.3 270.5 0L0 0Z" fill="#c491d5"></path><path d="M0 -202.9C16.6 -184 33.1 -165.1 50.6 -155.9C68.2 -146.6 86.7 -147 101.6 -139.9C116.6 -132.7 128 -118.1 144.4 -104.9C160.9 -91.7 182.3 -79.9 192.9 -62.7C203.5 -45.4 203.2 -22.7 202.9 0L0 0Z" fill="#a084dc"></path><path d="M0 -135.2C11 -122.7 22.1 -110.1 33.8 -103.9C45.4 -97.7 57.8 -98 67.7 -93.2C77.7 -88.5 85.3 -78.7 96.3 -69.9C107.2 -61.1 121.6 -53.3 128.6 -41.8C135.7 -30.3 135.5 -15.1 135.2 0L0 0Z" fill="#677ce3"></path><path d="M0 -67.6C5.5 -61.3 11 -55 16.9 -52C22.7 -48.9 28.9 -49 33.9 -46.6C38.9 -44.2 42.7 -39.4 48.1 -35C53.6 -30.6 60.8 -26.6 64.3 -20.9C67.8 -15.1 67.7 -7.6 67.6 0L0 0Z" fill="#3279e5"></path></g></svg>